<svg width="165" height="164" viewBox="0 0 165 164" fill="none" xmlns="http://www.w3.org/2000/svg">
<path d="M163.402 51.9469L136.273 3.33583C135.453 1.88283 134.019 1 132.448 1H32.6029C31.0492 1 29.598 1.88283 28.7785 3.33583L1.64879 51.9469C1.64879 51.9469 1.61464 52.0388 1.59757 52.094C1.40976 52.4435 1.27317 52.8297 1.17073 53.2159C1.17073 53.2711 1.13659 53.3447 1.11951 53.3999C1.05122 53.7493 1 54.0988 1 54.485C1 54.5586 1 54.6138 1.01707 54.6873C1.01707 54.7977 1.01707 54.8896 1.03415 54.9816C1.06829 55.3678 1.15366 55.7541 1.2561 56.1035C1.27317 56.1587 1.29025 56.2139 1.30732 56.2691C1.46098 56.6737 1.66586 57.0599 1.92196 57.4094C1.93904 57.4462 1.95611 57.483 1.99026 57.5198L79.0084 161.161L79.0426 161.198C79.0426 161.198 79.0938 161.234 79.1109 161.253C79.3158 161.529 79.5548 161.768 79.828 161.988C79.828 161.988 79.845 162.007 79.8621 162.025C79.8963 162.062 79.9304 162.08 79.9646 162.099C80.3231 162.375 80.7158 162.614 81.1597 162.779C81.5012 162.89 81.8426 162.926 82.167 162.945C82.2865 162.945 82.389 163 82.5085 163C82.5085 163 82.5597 163 82.5768 163C82.9695 163 83.3451 162.926 83.7207 162.816C83.7719 162.816 83.8232 162.816 83.8744 162.779C83.9768 162.724 84.0793 162.687 84.1817 162.632C84.3012 162.577 84.4207 162.522 84.5402 162.467C84.6768 162.393 84.8134 162.301 84.9329 162.191C85.0183 162.136 85.1037 162.08 85.189 162.007C85.2402 161.97 85.2744 161.952 85.3085 161.915C85.5134 161.731 85.6842 161.529 85.8549 161.326C85.889 161.289 85.9232 161.253 85.9573 161.216L85.9915 161.179L163.01 57.5381C164.188 55.9564 164.324 53.7309 163.368 51.9653L163.402 51.9469ZM92.1721 10.7112L106.48 49.5926H58.5886L72.8962 10.7112H92.1721ZM35.1127 10.7112H63.2497L48.9422 49.5926H13.4124L35.1127 10.7112ZM14.8295 59.3222H48.7031L70.9669 134.878L14.8295 59.3222ZM82.5256 142.217L58.1106 59.3222H106.958L82.5426 142.217H82.5256ZM94.0843 134.878L116.331 59.3222H150.205L94.0672 134.878H94.0843ZM116.092 49.611L101.784 10.7296H129.921L151.622 49.611H116.092Z" fill="#8DD3F7" stroke="#1E84AD" stroke-miterlimit="10"/>
</svg>
